<svg width="26" height="26" viewBox="0 0 26 26" fill="none" xmlns="http://www.w3.org/2000/svg">
<path d="M23.8957 7.52385C23.7663 7.04288 23.5128 6.60435 23.1606 6.25215C22.8084 5.89995 22.3698 5.64643 21.8889 5.51697C20.1176 5.0376 13.0001 5.0376 13.0001 5.0376C13.0001 5.0376 5.88262 5.0376 4.11137 5.51697C3.63041 5.64643 3.19188 5.89995 2.83968 6.25215C2.48748 6.60435 2.23396 7.04288 2.1045 7.52385C1.77377 9.33025 1.61327 11.1637 1.62512 13.0001C1.61327 14.8365 1.77377 16.6699 2.1045 18.4763C2.23396 18.9573 2.48748 19.3958 2.83968 19.748C3.19188 20.1002 3.63041 20.3538 4.11137 20.4832C5.88262 20.9626 13.0001 20.9626 13.0001 20.9626C13.0001 20.9626 20.1176 20.9626 21.8889 20.4832C22.3698 20.3538 22.8084 20.1002 23.1606 19.748C23.5128 19.3958 23.7663 18.9573 23.8957 18.4763C24.2265 16.6699 24.387 14.8365 24.3751 13.0001C24.387 11.1637 24.2265 9.33025 23.8957 7.52385ZM10.7251 16.4126V9.5876L16.632 13.0001L10.7251 16.4126Z" fill="white"/>
</svg>
